<?xml version="1.0" encoding="UTF-8" standalone="no"?>
<svg
   width="200mm"
   height="103mm"
   viewBox="0 0 200 103"
   version="1.1"
   preserveAspectRatio="xMidYMid meet"
   id="svg1"
   sodipodi:docname="cajacamara.svg"
   inkscape:version="1.3 (0e150ed, 2023-07-21)"
   xmlns:inkscape="http://www.inkscape.org/namespaces/inkscape"
   xmlns:sodipodi="http://sodipodi.sourceforge.net/DTD/sodipodi-0.dtd"
   xmlns="http://www.w3.org/2000/svg"
   xmlns:svg="http://www.w3.org/2000/svg">
  <defs
     id="defs1" />
  <sodipodi:namedview
     id="namedview1"
     pagecolor="#ffffff"
     bordercolor="#000000"
     borderopacity="0.25"
     inkscape:showpageshadow="2"
     inkscape:pageopacity="0.0"
     inkscape:pagecheckerboard="0"
     inkscape:deskcolor="#d1d1d1"
     inkscape:document-units="mm"
     inkscape:zoom="1.32"
     inkscape:cx="158.71212"
     inkscape:cy="234.84848"
     inkscape:window-width="1440"
     inkscape:window-height="785"
     inkscape:window-x="0"
     inkscape:window-y="25"
     inkscape:window-maximized="0"
     inkscape:current-layer="svg1" />
  <g
     id="svgGroup"
     stroke-linecap="round"
     fill-rule="evenodd"
     font-size="9pt"
     stroke="#000"
     stroke-width="0.25mm"
     fill="none"
     style="stroke:#000;stroke-width:0.25mm;fill:none">
    <path
       d="M 0 53 L 0 61.902 L 3 61.902 L 3 72.634 L 0 72.634 L 0 83.366 L 3 83.366 L 3 94.098 L 0 94.098 L 0 103 L 17.671 103 L 17.671 100 L 28.402 100 L 28.402 103 L 39.134 103 L 39.134 100 L 49.866 100 L 49.866 103 L 60.598 103 L 60.598 100 L 71.329 100 L 71.329 103 L 82.061 103 L 89 103 L 89 94.098 L 86 94.098 L 86 83.366 L 89 83.366 L 89 72.634 L 86 72.634 L 86 61.902 L 89 61.902 L 89 53 L 0 53 Z"
       id="front_outsideCutPath"
       stroke="#FF0000"
       stroke-width="0.1"
       style="stroke:#FF0000;stroke-width:0.1"
       vector-effect="non-scaling-stroke" />
    <path
       d="M 51.788 81.777 L 50.977 81.777 L 50.977 78.315 A 2.291 2.291 0 0 0 50.951 77.956 Q 50.889 77.565 50.679 77.338 A 0.914 0.914 0 0 0 50.304 77.099 Q 50.069 77.016 49.747 77.016 A 2.453 2.453 0 0 0 49.288 77.056 Q 48.791 77.151 48.516 77.47 Q 48.159 77.885 48.128 78.793 A 5.193 5.193 0 0 0 48.125 78.969 L 48.125 81.777 L 47.315 81.777 L 47.315 76.425 L 47.974 76.425 L 48.106 77.158 L 48.145 77.158 A 1.641 1.641 0 0 1 48.788 76.573 A 1.974 1.974 0 0 1 48.843 76.545 A 2.195 2.195 0 0 1 49.624 76.336 A 2.654 2.654 0 0 1 49.844 76.328 A 3.2 3.2 0 0 1 50.389 76.371 Q 50.96 76.47 51.299 76.794 A 1.405 1.405 0 0 1 51.642 77.331 Q 51.724 77.553 51.76 77.827 A 3.537 3.537 0 0 1 51.788 78.286 L 51.788 81.777 Z M 36.216 76.425 L 36.216 77.055 L 34.854 77.055 L 34.854 81.777 L 34.043 81.777 L 34.043 77.055 L 33.086 77.055 L 33.086 76.689 L 34.043 76.396 L 34.043 76.098 A 3.285 3.285 0 0 1 34.12 75.354 Q 34.407 74.125 35.767 74.125 A 2.61 2.61 0 0 1 36.136 74.154 Q 36.316 74.179 36.516 74.229 A 5.247 5.247 0 0 1 36.763 74.296 L 36.553 74.946 Q 36.22 74.838 35.956 74.807 A 1.743 1.743 0 0 0 35.752 74.794 A 1.093 1.093 0 0 0 35.489 74.824 A 0.702 0.702 0 0 0 35.074 75.1 Q 34.854 75.405 34.854 76.079 L 34.854 76.425 L 36.216 76.425 Z M 55.914 81.108 L 55.914 81.728 A 0.797 0.797 0 0 1 55.819 81.765 Q 55.718 81.799 55.574 81.825 A 3.033 3.033 0 0 1 55.525 81.833 Q 55.269 81.874 55.064 81.874 A 2.117 2.117 0 0 1 54.44 81.79 Q 53.511 81.504 53.511 80.239 L 53.511 77.055 L 52.745 77.055 L 52.745 76.664 L 53.511 76.328 L 53.853 75.185 L 54.322 75.185 L 54.322 76.425 L 55.875 76.425 L 55.875 77.055 L 54.322 77.055 L 54.322 80.204 A 1.632 1.632 0 0 0 54.345 80.491 Q 54.373 80.648 54.435 80.773 A 0.786 0.786 0 0 0 54.551 80.947 Q 54.781 81.205 55.181 81.205 A 2.662 2.662 0 0 0 55.571 81.178 A 2.453 2.453 0 0 0 55.596 81.174 Q 55.796 81.142 55.914 81.108 Z M 40.274 76.386 L 40.162 77.138 Q 39.885 77.077 39.663 77.067 A 1.901 1.901 0 0 0 39.576 77.065 Q 38.926 77.065 38.465 77.592 A 1.851 1.851 0 0 0 38.018 78.631 A 2.46 2.46 0 0 0 38.003 78.906 L 38.003 81.777 L 37.193 81.777 L 37.193 76.425 L 37.862 76.425 L 37.955 77.416 L 37.994 77.416 A 2.737 2.737 0 0 1 38.3 76.979 A 2.091 2.091 0 0 1 38.711 76.611 Q 39.131 76.328 39.634 76.328 A 3.721 3.721 0 0 1 39.967 76.342 A 2.716 2.716 0 0 1 40.274 76.386 Z M 45.82 79.911 A 4.187 4.187 0 0 0 45.894 79.096 Q 45.894 78.576 45.784 78.144 A 2.524 2.524 0 0 0 45.232 77.075 A 2.122 2.122 0 0 0 44.247 76.439 A 2.724 2.724 0 0 0 43.448 76.328 A 3.148 3.148 0 0 0 42.882 76.376 A 2.144 2.144 0 0 0 41.631 77.058 A 2.239 2.239 0 0 0 41.356 77.439 Q 40.977 78.1 40.977 79.096 A 4.055 4.055 0 0 0 41.028 79.753 A 2.998 2.998 0 0 0 41.28 80.571 A 2.664 2.664 0 0 0 41.339 80.686 A 2.194 2.194 0 0 0 42.139 81.537 Q 42.696 81.874 43.414 81.874 A 3.147 3.147 0 0 0 43.963 81.828 A 2.161 2.161 0 0 0 45.235 81.14 A 2.261 2.261 0 0 0 45.504 80.77 Q 45.724 80.394 45.82 79.911 Z M 41.817 79.096 Q 41.817 80.121 42.227 80.659 A 1.328 1.328 0 0 0 43.092 81.168 A 2.013 2.013 0 0 0 43.433 81.196 A 1.883 1.883 0 0 0 43.93 81.134 A 1.31 1.31 0 0 0 44.642 80.661 A 1.74 1.74 0 0 0 44.913 80.133 Q 44.992 79.889 45.027 79.592 A 4.27 4.27 0 0 0 45.054 79.096 A 4.044 4.044 0 0 0 45.016 78.52 Q 44.974 78.226 44.884 77.989 A 1.669 1.669 0 0 0 44.642 77.546 A 1.333 1.333 0 0 0 43.813 77.051 A 2.044 2.044 0 0 0 43.423 77.016 A 1.929 1.929 0 0 0 42.943 77.072 A 1.291 1.291 0 0 0 42.222 77.538 Q 41.817 78.061 41.817 79.096 Z"
       id="front_labelLayer"
       stroke="#777777"
       fill="#777777"
       style="stroke:#777777;fill:#777777"
       vector-effect="non-scaling-stroke" />
    <path
       d="M 95 53 L 95 61.902 L 92 61.902 L 92 72.634 L 95 72.634 L 95 83.366 L 92 83.366 L 92 94.098 L 95 94.098 L 95 103 L 108.366 103 L 111 103 L 111 94.098 L 114 94.098 L 114 83.366 L 111 83.366 L 111 72.634 L 114 72.634 L 114 61.902 L 111 61.902 L 111 53 L 95 53 Z"
       id="left_outsideCutPath"
       stroke="#FF0000"
       stroke-width="0.1"
       style="stroke:#FF0000;stroke-width:0.1"
       vector-effect="non-scaling-stroke" />
    <path
       d="M 104.565 77.307 L 104.565 77.584 L 103.966 77.584 L 103.966 79.662 L 103.609 79.662 L 103.609 77.584 L 103.188 77.584 L 103.188 77.423 L 103.609 77.294 L 103.609 77.163 Q 103.609 76.295 104.367 76.295 Q 104.513 76.295 104.697 76.341 A 2.309 2.309 0 0 1 104.806 76.37 L 104.713 76.656 Q 104.567 76.609 104.451 76.595 A 0.767 0.767 0 0 0 104.361 76.59 A 0.481 0.481 0 0 0 104.245 76.603 A 0.309 0.309 0 0 0 104.062 76.724 A 0.413 0.413 0 0 0 104.008 76.834 Q 103.972 76.941 103.967 77.101 A 1.684 1.684 0 0 0 103.966 77.155 L 103.966 77.307 L 104.565 77.307 Z M 102.896 78.323 L 102.896 78.549 L 101.274 78.549 A 1.431 1.431 0 0 0 101.299 78.789 Q 101.347 79.031 101.483 79.178 Q 101.682 79.393 102.043 79.393 A 1.884 1.884 0 0 0 102.748 79.253 A 2.159 2.159 0 0 0 102.795 79.234 L 102.795 79.552 A 2.141 2.141 0 0 1 102.6 79.626 A 1.637 1.637 0 0 1 102.437 79.669 Q 102.268 79.705 102.03 79.705 Q 101.508 79.705 101.206 79.387 Q 100.904 79.069 100.904 78.504 Q 100.904 77.934 101.185 77.599 A 0.914 0.914 0 0 1 101.851 77.267 A 1.261 1.261 0 0 1 101.938 77.264 A 1.087 1.087 0 0 1 102.244 77.305 A 0.827 0.827 0 0 1 102.638 77.555 A 0.997 0.997 0 0 1 102.864 78.011 A 1.452 1.452 0 0 1 102.896 78.323 Z M 106.078 79.367 L 106.078 79.64 A 0.351 0.351 0 0 1 106.036 79.657 Q 105.992 79.672 105.928 79.683 A 1.334 1.334 0 0 1 105.907 79.686 Q 105.802 79.704 105.716 79.705 A 0.916 0.916 0 0 1 105.704 79.705 Q 105.021 79.705 105.021 78.985 L 105.021 77.584 L 104.683 77.584 L 104.683 77.412 L 105.021 77.264 L 105.171 76.761 L 105.377 76.761 L 105.377 77.307 L 106.06 77.307 L 106.06 77.584 L 105.377 77.584 L 105.377 78.97 Q 105.377 79.119 105.427 79.22 A 0.346 0.346 0 0 0 105.478 79.297 A 0.331 0.331 0 0 0 105.682 79.405 A 0.477 0.477 0 0 0 105.755 79.41 Q 105.85 79.41 105.938 79.396 A 1.93 1.93 0 0 0 105.989 79.388 Q 106.042 79.378 106.078 79.367 Z M 100.279 76.319 L 100.279 79.662 L 99.922 79.662 L 99.922 76.319 L 100.279 76.319 Z M 101.282 78.259 L 102.513 78.259 Q 102.513 78.031 102.445 77.875 A 0.552 0.552 0 0 0 102.363 77.742 A 0.489 0.489 0 0 0 102.069 77.575 A 0.733 0.733 0 0 0 101.933 77.563 A 0.703 0.703 0 0 0 101.73 77.591 A 0.543 0.543 0 0 0 101.481 77.748 A 0.705 0.705 0 0 0 101.341 77.984 Q 101.305 78.081 101.289 78.198 A 1.347 1.347 0 0 0 101.282 78.259 Z"
       id="left_labelLayer"
       stroke="#777777"
       fill="#777777"
       style="stroke:#777777;fill:#777777"
       vector-effect="non-scaling-stroke" />
    <path
       d="M 0 0 L 0 8.902 L 3 8.902 L 3 19.634 L 0 19.634 L 0 30.366 L 3 30.366 L 3 41.098 L 0 41.098 L 0 50 L 17.671 50 L 17.671 47 L 28.402 47 L 28.402 50 L 39.134 50 L 39.134 47 L 49.866 47 L 49.866 50 L 60.598 50 L 60.598 47 L 71.329 47 L 71.329 50 L 82.061 50 L 89 50 L 89 41.098 L 86 41.098 L 86 30.366 L 89 30.366 L 89 19.634 L 86 19.634 L 86 8.902 L 89 8.902 L 89 0 L 0 0 Z"
       id="back_outsideCutPath"
       stroke="#FF0000"
       stroke-width="0.1"
       style="stroke:#FF0000;stroke-width:0.1"
       vector-effect="non-scaling-stroke" />
    <path
       d="M 51.346 26.011 L 51.385 26.011 A 4.798 4.798 0 0 1 51.503 25.85 Q 51.64 25.673 51.835 25.446 A 17.416 17.416 0 0 1 52.024 25.229 L 53.753 23.398 L 54.715 23.398 L 52.547 25.679 L 54.866 28.75 L 53.885 28.75 L 51.995 26.221 L 51.385 26.748 L 51.385 28.75 L 50.584 28.75 L 50.584 21.152 L 51.385 21.152 L 51.385 25.181 A 5.402 5.402 0 0 1 51.382 25.333 Q 51.375 25.583 51.347 25.99 A 33.76 33.76 0 0 1 51.346 26.011 Z M 34.944 28.061 L 34.886 28.061 L 34.715 28.75 L 34.134 28.75 L 34.134 21.152 L 34.944 21.152 L 34.944 22.998 Q 34.944 23.598 34.908 24.079 A 10.075 10.075 0 0 1 34.905 24.111 L 34.944 24.111 A 1.843 1.843 0 0 1 36.289 23.33 A 2.768 2.768 0 0 1 36.624 23.31 A 2.477 2.477 0 0 1 37.321 23.404 A 1.854 1.854 0 0 1 38.262 24.031 Q 38.729 24.607 38.823 25.568 A 5.203 5.203 0 0 1 38.846 26.069 A 4.752 4.752 0 0 1 38.783 26.869 Q 38.71 27.295 38.553 27.637 A 2.278 2.278 0 0 1 38.257 28.118 A 1.919 1.919 0 0 1 36.894 28.835 A 2.749 2.749 0 0 1 36.624 28.848 Q 36.102 28.848 35.669 28.655 A 1.795 1.795 0 0 1 34.944 28.061 Z M 44.153 28.75 L 43.553 28.75 L 43.392 27.988 L 43.353 27.988 A 3.36 3.36 0 0 1 43.081 28.293 Q 42.817 28.552 42.554 28.669 A 1.869 1.869 0 0 1 42.168 28.791 Q 41.896 28.848 41.561 28.848 A 2.487 2.487 0 0 1 41.054 28.799 Q 40.745 28.735 40.507 28.585 A 1.396 1.396 0 0 1 40.313 28.437 A 1.332 1.332 0 0 1 39.911 27.735 A 2.039 2.039 0 0 1 39.861 27.27 A 1.403 1.403 0 0 1 40.659 25.947 Q 41.3 25.606 42.454 25.571 L 43.362 25.542 L 43.362 25.21 A 2.328 2.328 0 0 0 43.34 24.873 Q 43.314 24.701 43.261 24.563 A 0.905 0.905 0 0 0 43.091 24.28 Q 42.875 24.04 42.452 23.992 A 2.003 2.003 0 0 0 42.225 23.979 A 2.639 2.639 0 0 0 41.617 24.055 Q 41.339 24.121 41.035 24.245 A 5.428 5.428 0 0 0 40.711 24.39 L 40.462 23.769 A 3.737 3.737 0 0 1 41.183 23.473 A 4.254 4.254 0 0 1 41.329 23.433 A 3.754 3.754 0 0 1 42.273 23.31 A 3.423 3.423 0 0 1 42.795 23.347 Q 43.367 23.436 43.692 23.735 A 1.284 1.284 0 0 1 44.023 24.246 Q 44.1 24.456 44.132 24.717 A 3.189 3.189 0 0 1 44.153 25.098 L 44.153 28.75 Z M 49.393 23.579 L 49.144 24.268 A 3.606 3.606 0 0 0 48.752 24.137 A 4.306 4.306 0 0 0 48.558 24.089 Q 48.286 24.029 48.068 24.02 A 1.797 1.797 0 0 0 47.996 24.018 A 1.798 1.798 0 0 0 47.266 24.156 Q 46.365 24.553 46.365 26.099 A 3.925 3.925 0 0 0 46.404 26.67 Q 46.447 26.96 46.537 27.195 A 1.681 1.681 0 0 0 46.763 27.612 A 1.287 1.287 0 0 0 47.597 28.111 A 1.961 1.961 0 0 0 47.942 28.14 A 3.393 3.393 0 0 0 48.878 28.003 A 4.189 4.189 0 0 0 49.314 27.852 L 49.314 28.569 A 2.306 2.306 0 0 1 48.75 28.769 Q 48.49 28.827 48.187 28.842 A 4.445 4.445 0 0 1 47.962 28.848 A 3.029 3.029 0 0 1 47.225 28.763 A 2.054 2.054 0 0 1 46.163 28.132 A 2.345 2.345 0 0 1 45.675 27.237 Q 45.567 26.881 45.537 26.454 A 4.901 4.901 0 0 1 45.525 26.108 A 4.472 4.472 0 0 1 45.595 25.295 Q 45.679 24.841 45.865 24.484 A 2.235 2.235 0 0 1 46.172 24.033 A 2.099 2.099 0 0 1 47.322 23.372 A 3.182 3.182 0 0 1 48.016 23.301 Q 48.401 23.301 48.787 23.384 A 4.046 4.046 0 0 1 49.012 23.438 Q 49.242 23.502 49.393 23.579 Z M 35.624 24.19 A 1.078 1.078 0 0 0 35.311 24.465 Q 34.944 24.941 34.944 26.069 A 5.359 5.359 0 0 0 34.971 26.623 Q 35.029 27.182 35.216 27.522 A 1.222 1.222 0 0 0 35.32 27.683 A 1.176 1.176 0 0 0 35.917 28.086 Q 36.116 28.148 36.359 28.164 A 2.606 2.606 0 0 0 36.526 28.169 A 1.616 1.616 0 0 0 36.985 28.107 A 1.166 1.166 0 0 0 37.64 27.624 Q 38.006 27.08 38.006 26.06 A 4.789 4.789 0 0 0 37.977 25.514 Q 37.903 24.87 37.64 24.502 Q 37.273 23.989 36.507 23.989 Q 35.967 23.989 35.624 24.19 Z M 43.343 26.602 L 43.343 26.118 L 42.532 26.152 Q 41.565 26.186 41.138 26.453 A 0.865 0.865 0 0 0 40.726 27.08 A 1.28 1.28 0 0 0 40.711 27.28 A 1.158 1.158 0 0 0 40.74 27.546 Q 40.788 27.75 40.917 27.891 A 0.722 0.722 0 0 0 40.977 27.949 A 0.882 0.882 0 0 0 41.308 28.125 Q 41.438 28.163 41.595 28.174 A 1.823 1.823 0 0 0 41.722 28.179 A 2.232 2.232 0 0 0 42.204 28.13 Q 42.539 28.055 42.787 27.869 A 1.353 1.353 0 0 0 42.911 27.764 Q 43.343 27.349 43.343 26.602 Z"
       id="back_labelLayer"
       stroke="#777777"
       fill="#777777"
       style="stroke:#777777;fill:#777777"
       vector-effect="non-scaling-stroke" />
    <path
       d="M 95 0 L 95 8.902 L 92 8.902 L 92 19.634 L 95 19.634 L 95 30.366 L 92 30.366 L 92 41.098 L 95 41.098 L 95 50 L 108.366 50 L 111 50 L 111 41.098 L 114 41.098 L 114 30.366 L 111 30.366 L 111 19.634 L 114 19.634 L 114 8.902 L 111 8.902 L 111 0 L 95 0 Z"
       id="right_outsideCutPath"
       stroke="#FF0000"
       stroke-width="0.1"
       style="stroke:#FF0000;stroke-width:0.1"
       vector-effect="non-scaling-stroke" />
    <path
       d="M 105.736 26.143 L 105.379 26.143 L 105.379 24.62 A 1.008 1.008 0 0 0 105.368 24.462 Q 105.34 24.29 105.248 24.19 Q 105.142 24.075 104.939 24.053 A 0.945 0.945 0 0 0 104.838 24.048 A 1.079 1.079 0 0 0 104.636 24.066 Q 104.524 24.087 104.438 24.134 A 0.499 0.499 0 0 0 104.296 24.25 A 0.593 0.593 0 0 0 104.195 24.429 Q 104.134 24.592 104.126 24.835 A 2.302 2.302 0 0 0 104.125 24.912 L 104.125 26.143 L 103.768 26.143 L 103.768 22.8 L 104.125 22.8 L 104.125 23.812 Q 104.125 23.943 104.116 24.042 A 1.395 1.395 0 0 1 104.108 24.115 L 104.129 24.115 Q 104.234 23.945 104.429 23.847 A 0.916 0.916 0 0 1 104.729 23.758 A 1.157 1.157 0 0 1 104.872 23.75 A 1.447 1.447 0 0 1 105.115 23.769 Q 105.245 23.791 105.347 23.838 A 0.643 0.643 0 0 1 105.52 23.955 A 0.621 0.621 0 0 1 105.673 24.195 Q 105.71 24.295 105.725 24.419 A 1.542 1.542 0 0 1 105.736 24.607 L 105.736 26.143 Z M 102.47 23.788 L 103.285 23.788 L 103.285 24.014 L 102.849 24.065 A 0.58 0.58 0 0 1 102.899 24.14 Q 102.929 24.194 102.956 24.262 A 0.686 0.686 0 0 1 102.997 24.426 A 0.881 0.881 0 0 1 103.003 24.536 A 0.818 0.818 0 0 1 102.966 24.789 A 0.661 0.661 0 0 1 102.767 25.088 Q 102.531 25.294 102.118 25.294 A 1.146 1.146 0 0 1 101.985 25.287 A 0.968 0.968 0 0 1 101.92 25.277 A 0.635 0.635 0 0 0 101.818 25.343 Q 101.765 25.386 101.735 25.435 A 0.268 0.268 0 0 0 101.693 25.58 A 0.185 0.185 0 0 0 101.702 25.641 Q 101.72 25.693 101.772 25.723 A 0.25 0.25 0 0 0 101.828 25.746 Q 101.908 25.769 102.045 25.769 L 102.462 25.769 A 1.46 1.46 0 0 1 102.684 25.785 Q 102.799 25.803 102.893 25.841 A 0.645 0.645 0 0 1 103.049 25.93 A 0.522 0.522 0 0 1 103.243 26.263 A 0.784 0.784 0 0 1 103.255 26.399 A 0.772 0.772 0 0 1 103.21 26.666 Q 103.139 26.86 102.953 26.987 A 0.846 0.846 0 0 1 102.941 26.995 Q 102.627 27.2 102.026 27.2 A 1.998 1.998 0 0 1 101.758 27.183 Q 101.486 27.146 101.313 27.028 A 0.568 0.568 0 0 1 101.13 26.829 Q 101.072 26.72 101.064 26.583 A 0.753 0.753 0 0 1 101.063 26.543 A 0.545 0.545 0 0 1 101.201 26.171 A 0.623 0.623 0 0 1 101.415 26.015 A 0.883 0.883 0 0 1 101.587 25.958 A 0.37 0.37 0 0 1 101.444 25.842 A 0.44 0.44 0 0 1 101.436 25.831 A 0.331 0.331 0 0 1 101.375 25.653 A 0.41 0.41 0 0 1 101.375 25.632 A 0.408 0.408 0 0 1 101.395 25.5 A 0.361 0.361 0 0 1 101.443 25.406 A 0.51 0.51 0 0 1 101.511 25.33 Q 101.547 25.296 101.593 25.264 A 1.12 1.12 0 0 1 101.66 25.219 A 0.625 0.625 0 0 1 101.389 25.002 A 0.775 0.775 0 0 1 101.363 24.963 A 0.737 0.737 0 0 1 101.25 24.608 A 0.9 0.9 0 0 1 101.248 24.551 A 1.03 1.03 0 0 1 101.275 24.307 A 0.678 0.678 0 0 1 101.48 23.955 Q 101.68 23.774 102.025 23.749 A 1.575 1.575 0 0 1 102.137 23.745 A 1.367 1.367 0 0 1 102.318 23.757 A 1.041 1.041 0 0 1 102.47 23.788 Z M 107.551 25.849 L 107.551 26.121 A 0.351 0.351 0 0 1 107.51 26.138 Q 107.465 26.153 107.402 26.164 A 1.334 1.334 0 0 1 107.381 26.168 Q 107.275 26.185 107.19 26.186 A 0.916 0.916 0 0 1 107.178 26.186 Q 106.494 26.186 106.494 25.466 L 106.494 24.065 L 106.157 24.065 L 106.157 23.894 L 106.494 23.745 L 106.645 23.243 L 106.851 23.243 L 106.851 23.788 L 107.534 23.788 L 107.534 24.065 L 106.851 24.065 L 106.851 25.451 Q 106.851 25.601 106.901 25.701 A 0.346 0.346 0 0 0 106.952 25.778 A 0.331 0.331 0 0 0 107.156 25.886 A 0.477 0.477 0 0 0 107.229 25.892 Q 107.324 25.892 107.412 25.878 A 1.93 1.93 0 0 0 107.463 25.869 Q 107.516 25.859 107.551 25.849 Z M 99.804 23.771 L 99.755 24.102 Q 99.609 24.07 99.497 24.07 A 0.618 0.618 0 0 0 99.04 24.267 A 0.845 0.845 0 0 0 99.008 24.302 A 0.814 0.814 0 0 0 98.812 24.759 A 1.083 1.083 0 0 0 98.805 24.88 L 98.805 26.143 L 98.449 26.143 L 98.449 23.788 L 98.743 23.788 L 98.784 24.224 L 98.801 24.224 A 1.204 1.204 0 0 1 98.936 24.032 A 0.92 0.92 0 0 1 99.117 23.87 Q 99.301 23.745 99.523 23.745 A 1.637 1.637 0 0 1 99.669 23.752 A 1.195 1.195 0 0 1 99.804 23.771 Z M 100.601 23.788 L 100.601 26.143 L 100.245 26.143 L 100.245 23.788 L 100.601 23.788 Z M 102.348 26.089 L 101.92 26.089 A 0.82 0.82 0 0 0 101.773 26.102 Q 101.689 26.117 101.622 26.151 A 0.418 0.418 0 0 0 101.542 26.205 A 0.376 0.376 0 0 0 101.419 26.418 A 0.571 0.571 0 0 0 101.407 26.538 A 0.358 0.358 0 0 0 101.431 26.671 Q 101.464 26.757 101.547 26.815 A 0.418 0.418 0 0 0 101.568 26.828 A 0.571 0.571 0 0 0 101.709 26.889 Q 101.842 26.927 102.03 26.927 Q 102.431 26.927 102.646 26.82 A 0.592 0.592 0 0 0 102.695 26.793 A 0.52 0.52 0 0 0 102.816 26.692 A 0.39 0.39 0 0 0 102.911 26.429 A 0.483 0.483 0 0 0 102.902 26.333 Q 102.879 26.217 102.793 26.163 Q 102.675 26.089 102.348 26.089 Z M 101.6 24.542 A 0.696 0.696 0 0 0 101.615 24.688 Q 101.645 24.83 101.74 24.916 Q 101.88 25.043 102.129 25.043 Q 102.651 25.043 102.651 24.536 Q 102.651 24.005 102.122 24.005 Q 101.871 24.005 101.736 24.141 Q 101.621 24.255 101.603 24.465 A 0.938 0.938 0 0 0 101.6 24.542 Z M 100.275 22.971 A 0.167 0.167 0 0 0 100.238 23.023 Q 100.215 23.074 100.215 23.15 Q 100.215 23.211 100.23 23.256 A 0.184 0.184 0 0 0 100.275 23.33 A 0.2 0.2 0 0 0 100.347 23.376 A 0.227 0.227 0 0 0 100.425 23.389 A 0.208 0.208 0 0 0 100.573 23.33 A 0.174 0.174 0 0 0 100.607 23.285 Q 100.636 23.231 100.636 23.15 A 0.408 0.408 0 0 0 100.634 23.112 Q 100.631 23.076 100.621 23.048 A 0.18 0.18 0 0 0 100.573 22.972 A 0.21 0.21 0 0 0 100.425 22.914 A 0.272 0.272 0 0 0 100.407 22.914 A 0.206 0.206 0 0 0 100.275 22.971 Z"
       id="right_labelLayer"
       stroke="#777777"
       fill="#777777"
       style="stroke:#777777;fill:#777777"
       vector-effect="non-scaling-stroke" />
    <path
       d="M 117 84 L 117 97.366 L 117 100 L 131.671 100 L 131.671 103 L 142.402 103 L 142.402 100 L 153.134 100 L 153.134 103 L 163.866 103 L 163.866 100 L 174.598 100 L 174.598 103 L 185.329 103 L 185.329 100 L 196.061 100 L 200 100 L 200 86.634 L 200 84 L 185.329 84 L 185.329 81 L 174.598 81 L 174.598 84 L 163.866 84 L 163.866 81 L 153.134 81 L 153.134 84 L 142.402 84 L 142.402 81 L 131.671 81 L 131.671 84 L 120.939 84 L 117 84 Z"
       id="bottom_outsideCutPath"
       stroke="#FF0000"
       stroke-width="0.1"
       style="stroke:#FF0000;stroke-width:0.1"
       vector-effect="non-scaling-stroke" />
    <path
       d="M 165.738 93.65 L 165.381 93.65 L 165.381 92.118 A 1.052 1.052 0 0 0 165.371 91.963 Q 165.346 91.795 165.261 91.696 A 0.375 0.375 0 0 0 165.087 91.583 Q 165.025 91.563 164.949 91.557 A 0.828 0.828 0 0 0 164.887 91.555 A 0.918 0.918 0 0 0 164.701 91.573 Q 164.589 91.596 164.506 91.649 A 0.472 0.472 0 0 0 164.395 91.746 Q 164.236 91.938 164.236 92.335 L 164.236 93.65 L 163.88 93.65 L 163.88 92.118 A 1.052 1.052 0 0 0 163.869 91.963 Q 163.844 91.795 163.759 91.696 A 0.374 0.374 0 0 0 163.587 91.584 Q 163.525 91.564 163.45 91.558 A 0.835 0.835 0 0 0 163.383 91.555 A 0.886 0.886 0 0 0 163.2 91.573 Q 163.087 91.597 163.003 91.653 A 0.467 0.467 0 0 0 162.892 91.756 A 0.598 0.598 0 0 0 162.804 91.925 Q 162.746 92.087 162.738 92.331 A 2.483 2.483 0 0 0 162.737 92.415 L 162.737 93.65 L 162.38 93.65 L 162.38 91.295 L 162.67 91.295 L 162.728 91.618 L 162.745 91.618 A 0.701 0.701 0 0 1 163.03 91.349 A 0.847 0.847 0 0 1 163.364 91.255 A 1.023 1.023 0 0 1 163.441 91.252 A 1.168 1.168 0 0 1 163.704 91.28 Q 163.866 91.317 163.979 91.406 A 0.609 0.609 0 0 1 164.163 91.652 L 164.18 91.652 Q 164.286 91.467 164.486 91.36 Q 164.685 91.252 164.941 91.252 Q 165.21 91.252 165.388 91.346 A 0.588 0.588 0 0 1 165.539 91.457 Q 165.684 91.607 165.723 91.887 A 1.636 1.636 0 0 1 165.738 92.114 L 165.738 93.65 Z M 151.619 93.347 L 151.593 93.347 L 151.518 93.65 L 151.262 93.65 L 151.262 90.307 L 151.619 90.307 L 151.619 91.119 A 7.436 7.436 0 0 1 151.615 91.37 Q 151.61 91.497 151.601 91.609 L 151.619 91.609 Q 151.868 91.257 152.358 91.257 A 1.09 1.09 0 0 1 152.664 91.298 A 0.816 0.816 0 0 1 153.078 91.573 A 1.051 1.051 0 0 1 153.263 91.928 Q 153.308 92.075 153.325 92.25 A 2.289 2.289 0 0 1 153.335 92.47 A 2.091 2.091 0 0 1 153.307 92.822 Q 153.275 93.01 153.206 93.16 A 1.002 1.002 0 0 1 153.076 93.372 A 0.844 0.844 0 0 1 152.476 93.687 A 1.21 1.21 0 0 1 152.358 93.693 A 1.082 1.082 0 0 1 152.086 93.66 A 0.941 0.941 0 0 1 151.938 93.608 Q 151.747 93.523 151.619 93.347 Z M 157.699 93.356 L 157.699 93.628 A 0.351 0.351 0 0 1 157.657 93.645 Q 157.613 93.66 157.549 93.671 A 1.334 1.334 0 0 1 157.528 93.675 Q 157.423 93.692 157.337 93.693 A 0.916 0.916 0 0 1 157.325 93.693 Q 156.642 93.693 156.642 92.973 L 156.642 91.572 L 156.304 91.572 L 156.304 91.401 L 156.642 91.252 L 156.792 90.75 L 156.998 90.75 L 156.998 91.295 L 157.681 91.295 L 157.681 91.572 L 156.998 91.572 L 156.998 92.958 Q 156.998 93.108 157.048 93.208 A 0.346 0.346 0 0 0 157.099 93.285 A 0.331 0.331 0 0 0 157.303 93.393 A 0.477 0.477 0 0 0 157.376 93.399 Q 157.471 93.399 157.559 93.385 A 1.93 1.93 0 0 0 157.61 93.376 Q 157.663 93.366 157.699 93.356 Z M 159.252 93.356 L 159.252 93.628 A 0.351 0.351 0 0 1 159.21 93.645 Q 159.166 93.66 159.102 93.671 A 1.334 1.334 0 0 1 159.081 93.675 Q 158.976 93.692 158.89 93.693 A 0.916 0.916 0 0 1 158.878 93.693 Q 158.195 93.693 158.195 92.973 L 158.195 91.572 L 157.858 91.572 L 157.858 91.401 L 158.195 91.252 L 158.345 90.75 L 158.552 90.75 L 158.552 91.295 L 159.235 91.295 L 159.235 91.572 L 158.552 91.572 L 158.552 92.958 Q 158.552 93.108 158.601 93.208 A 0.346 0.346 0 0 0 158.653 93.285 A 0.331 0.331 0 0 0 158.856 93.393 A 0.477 0.477 0 0 0 158.93 93.399 Q 159.024 93.399 159.112 93.385 A 1.93 1.93 0 0 0 159.164 93.376 Q 159.216 93.366 159.252 93.356 Z M 155.958 92.829 A 1.842 1.842 0 0 0 155.991 92.47 A 2.093 2.093 0 0 0 155.99 92.414 Q 155.985 92.218 155.942 92.051 A 1.111 1.111 0 0 0 155.7 91.581 A 0.934 0.934 0 0 0 155.266 91.301 A 1.198 1.198 0 0 0 154.914 91.252 A 1.385 1.385 0 0 0 154.665 91.274 A 0.943 0.943 0 0 0 154.115 91.573 Q 153.827 91.895 153.827 92.47 A 1.784 1.784 0 0 0 153.85 92.759 A 1.319 1.319 0 0 0 153.96 93.119 A 1.172 1.172 0 0 0 153.986 93.17 A 0.966 0.966 0 0 0 154.338 93.545 A 0.993 0.993 0 0 0 154.566 93.646 A 1.145 1.145 0 0 0 154.899 93.693 Q 155.411 93.693 155.701 93.37 Q 155.893 93.155 155.958 92.829 Z M 161.722 92.829 A 1.842 1.842 0 0 0 161.755 92.47 A 2.093 2.093 0 0 0 161.754 92.414 Q 161.749 92.218 161.706 92.051 A 1.111 1.111 0 0 0 161.464 91.581 A 0.934 0.934 0 0 0 161.03 91.301 A 1.198 1.198 0 0 0 160.679 91.252 A 1.385 1.385 0 0 0 160.43 91.274 A 0.943 0.943 0 0 0 159.879 91.573 Q 159.591 91.895 159.591 92.47 A 1.784 1.784 0 0 0 159.614 92.759 A 1.319 1.319 0 0 0 159.725 93.119 A 1.172 1.172 0 0 0 159.751 93.17 A 0.966 0.966 0 0 0 160.103 93.545 A 0.993 0.993 0 0 0 160.331 93.646 A 1.145 1.145 0 0 0 160.663 93.693 Q 161.175 93.693 161.465 93.37 Q 161.657 93.155 161.722 92.829 Z M 154.197 92.47 A 1.806 1.806 0 0 0 154.214 92.728 Q 154.233 92.859 154.273 92.966 A 0.748 0.748 0 0 0 154.377 93.158 A 0.585 0.585 0 0 0 154.758 93.382 A 0.886 0.886 0 0 0 154.908 93.394 A 0.828 0.828 0 0 0 155.126 93.367 A 0.576 0.576 0 0 0 155.44 93.159 A 0.766 0.766 0 0 0 155.559 92.927 Q 155.594 92.82 155.609 92.689 A 1.879 1.879 0 0 0 155.621 92.47 Q 155.621 92.021 155.44 91.788 A 0.587 0.587 0 0 0 155.075 91.571 A 0.899 0.899 0 0 0 154.904 91.555 A 0.849 0.849 0 0 0 154.692 91.58 A 0.568 0.568 0 0 0 154.375 91.785 A 0.737 0.737 0 0 0 154.26 92.007 Q 154.197 92.198 154.197 92.47 Z M 159.961 92.47 A 1.806 1.806 0 0 0 159.978 92.728 Q 159.997 92.859 160.037 92.966 A 0.748 0.748 0 0 0 160.141 93.158 A 0.585 0.585 0 0 0 160.522 93.382 A 0.886 0.886 0 0 0 160.672 93.394 A 0.828 0.828 0 0 0 160.891 93.367 A 0.576 0.576 0 0 0 161.204 93.159 A 0.766 0.766 0 0 0 161.323 92.927 Q 161.358 92.82 161.373 92.689 A 1.879 1.879 0 0 0 161.385 92.47 Q 161.385 92.021 161.204 91.788 A 0.587 0.587 0 0 0 160.839 91.571 A 0.899 0.899 0 0 0 160.668 91.555 A 0.849 0.849 0 0 0 160.456 91.58 A 0.568 0.568 0 0 0 160.139 91.785 A 0.737 0.737 0 0 0 160.025 92.007 Q 159.961 92.198 159.961 92.47 Z M 152.306 91.555 Q 151.941 91.555 151.78 91.765 Q 151.638 91.949 151.621 92.354 A 2.748 2.748 0 0 0 151.619 92.47 A 2.358 2.358 0 0 0 151.63 92.714 Q 151.662 93.024 151.784 93.181 Q 151.932 93.372 152.241 93.392 A 1.147 1.147 0 0 0 152.315 93.394 A 0.711 0.711 0 0 0 152.517 93.367 A 0.513 0.513 0 0 0 152.804 93.155 A 0.819 0.819 0 0 0 152.906 92.936 Q 152.966 92.74 152.966 92.466 A 2.107 2.107 0 0 0 152.953 92.226 Q 152.92 91.943 152.804 91.781 Q 152.643 91.555 152.306 91.555 Z"
       id="bottom_labelLayer"
       stroke="#777777"
       fill="#777777"
       style="stroke:#777777;fill:#777777"
       vector-effect="non-scaling-stroke" />
  </g>
  <circle
     style="fill:#000000;stroke-width:0"
     id="path1"
     cx="14.5"
     cy="78"
     r="9.5" />
  <circle
     style="fill:#000000;stroke-width:0"
     id="path1-9"
     cx="74.199997"
     cy="78"
     r="9.5" />
  <circle
     style="fill:#000000;stroke-width:0"
     id="path3"
     cx="44.200001"
     cy="79"
     r="7.5" />
  <circle
     style="fill:#000000;stroke-width:0"
     id="path4"
     cx="64.470863"
     cy="84.587532"
     r="4" />
  <circle
     style="fill:#000000;stroke-width:0"
     id="path5"
     cx="26.058327"
     cy="73.175034"
     r="4" />
</svg>
